<?xml version="1.0" encoding="UTF-8" standalone="no"?>
<!-- Created with Inkscape (http://www.inkscape.org/) -->

<svg
   width="60"
   height="120"
   viewBox="0 0 15.875 31.749993"
   version="1.1"
   id="svg5"
   inkscape:version="1.2.2 (b0a8486, 2022-12-01)"
   sodipodi:docname="inkwell-with-pen.svg"
   xml:space="preserve"
   xmlns:inkscape="http://www.inkscape.org/namespaces/inkscape"
   xmlns:sodipodi="http://sodipodi.sourceforge.net/DTD/sodipodi-0.dtd"
   xmlns="http://www.w3.org/2000/svg"
   xmlns:svg="http://www.w3.org/2000/svg"><sodipodi:namedview
     id="namedview7"
     pagecolor="#ffffff"
     bordercolor="#000000"
     borderopacity="0.25"
     inkscape:showpageshadow="2"
     inkscape:pageopacity="0.0"
     inkscape:pagecheckerboard="0"
     inkscape:deskcolor="#d1d1d1"
     inkscape:document-units="px"
     showgrid="false"
     showguides="true"
     inkscape:zoom="3.3638608"
     inkscape:cx="-38.943347"
     inkscape:cy="63.17146"
     inkscape:window-width="1440"
     inkscape:window-height="763"
     inkscape:window-x="0"
     inkscape:window-y="25"
     inkscape:window-maximized="1"
     inkscape:current-layer="layer1"><sodipodi:guide
       position="7.9393615,28.22525"
       orientation="1,0"
       id="guide223"
       inkscape:locked="false" /></sodipodi:namedview><defs
     id="defs2" /><g
     inkscape:label="Layer 1"
     inkscape:groupmode="layer"
     id="layer1"><rect
       style="fill:#000000;stroke-width:0.351067"
       id="rect111"
       width="13.306476"
       height="6.7836938"
       x="1.2842621"
       y="23.502525"
       ry="1.7220144" /><rect
       style="fill:#000000;stroke-width:0.351067"
       id="rect113"
       width="7.8781037"
       height="2.6091127"
       x="4.0003099"
       y="19.223581"
       ry="0.88709855" /><rect
       style="fill:#000000;stroke-width:0.463638"
       id="rect225"
       width="6.188879"
       height="3.3396642"
       x="4.8449216"
       y="21.10214"
       ry="0" /><rect
       style="fill:#ffffff;stroke-width:0.351067"
       id="rect281"
       width="1.1738565"
       height="1.669832"
       x="4.0003099"
       y="21.832693"
       ry="0.35975942" /><rect
       style="fill:#ffffff;stroke-width:0.351067"
       id="rect281-0"
       width="1.1738565"
       height="1.669832"
       x="10.704557"
       y="21.832693"
       ry="0.35975942" /><g
       style="fill:#000000"
       id="g514"
       transform="matrix(0.46611657,-2.0663825e-4,2.0663825e-4,0.46611657,-1.694805,8.6047091)"><g
         id="g505">
	<path
   d="m 15.102558,28.076313 c 0,0 3.458377,6.574581 4.85582,9.104742 l -0.611152,-5.935488 c -0.711644,-0.313059 -1.291372,-1.24449 -1.285975,-2.07193 0.01016,-1.110415 1.003273,-2.00557 2.113761,-1.996819 1.114056,0.0082 2.005875,0.91549 1.998463,2.027464 -0.0055,0.843718 -0.620309,1.734425 -1.358403,2.026799 l -0.498302,6.016005 4.485924,-8.879283 -0.97159,-6.644542 -6.680975,-0.127789 z M 18.614799,-6.9800972 C 18.215043,-5.3206141 17.117835,19.774797 17.117835,19.774797 l 6.85585,0.196337 c 0,0 -0.738882,-23.1280868 -1.536126,-27.2506882 -2.26219,-2.0347721 -3.82276,0.299457 -3.82276,0.299457 z"
   id="path503" />
</g></g></g></svg>
